<svg version="1.2" xmlns="http://www.w3.org/2000/svg" viewBox="0 0 3710 3710" width="3710" height="3710">
	<title>Wavy_Edu-05_Single-12-ai</title>
	<defs>
		<linearGradient id="g1" x1="1721.9" y1="2267.4" x2="1452.5" y2="2470.6" gradientUnits="userSpaceOnUse">
			<stop offset="0" stop-color="#e38ddd"/>
			<stop offset="1" stop-color="#9571f6"/>
		</linearGradient>
		<clipPath clipPathUnits="userSpaceOnUse" id="cp1">
			<path d="m1228.05 2281.56c-108.58 28.05-347.22 68.46-342.01-95.8 4.34-136.75 61.36-219.08-101.24-257.45-162.6-38.38-249.77-130.47-222.56-280.94 28.64-158.35-161.53-306.57-53.46-433.69 188.3-221.51 479.92 129.75 528.65 354.81 48.74 225.06 154.57 141.27 309.6 144.53 211.65 4.46 95.05 225.7 194.89 296.54 33.81 24 47.61 23.77 86.25 30.03 11.21 9.24 70.69 4.61 75.08 16.95 25.66 72.25-33.36 194.86-60.52 262.12-4.08 10.1-31.12 37.72-46.21 44.3-43.14-102.54-281.03-104-368.47-81.4z"/>
		</clipPath>
		<linearGradient id="g2" x1="2242.8" y1="1402.4" x2="1490.6" y2="2333.5" gradientUnits="userSpaceOnUse">
			<stop offset="0" stop-color="#ffc444"/>
			<stop offset="1" stop-color="#f36f56"/>
		</linearGradient>
		<clipPath clipPathUnits="userSpaceOnUse" id="cp2">
			<path d="m1247.65 1914.56c-117.03-9.82-366.88-52.39-304.93-212.96 51.57-133.68 136.4-195.33-11.05-289.5-147.45-94.16-201.76-215.33-122.83-354.65 83.06-146.62-53.66-358.9 97.13-447.18 262.72-153.83 429.51 294.22 399.85 533.53-29.65 239.32 103.93 193.09 256.04 249.93 207.67 77.59 15.91 255.97 90.1 360.51 25.13 35.41 38.84 39.96 74.87 59.51 7.89 13.01 68.29 29 68.35 42.72 0.38 80.29-100.36 181.08-150.46 238.16-7.53 8.58-43.8 26.53-61 27.81-7.18-116.27-241.82-199.98-336.07-207.88z"/>
		</clipPath>
		<linearGradient id="g3" x1="2293.4" y1="160.9" x2="879" y2="1321.1" gradientUnits="userSpaceOnUse">
			<stop offset="0" stop-color="#311944"/>
			<stop offset="1" stop-color="#a03976"/>
		</linearGradient>
		<linearGradient id="g4" x1="862.2" y1="1633.7" x2="1390.6" y2="1938.4" gradientUnits="userSpaceOnUse">
			<stop offset="0" stop-color="#311944"/>
			<stop offset="1" stop-color="#a03976"/>
		</linearGradient>
		<linearGradient id="g5" x1="1343.8" y1="1727.9" x2="2863.2" y2="1794.7" gradientUnits="userSpaceOnUse">
			<stop offset="0" stop-color="#d8dee8"/>
			<stop offset="1" stop-color="#aabbcc"/>
		</linearGradient>
		<linearGradient id="g6" x1="1351.6" y1="1651.6" x2="2902.3" y2="1719.8" gradientUnits="userSpaceOnUse">
			<stop offset=".5" stop-color="#eaedf3"/>
			<stop offset="1" stop-color="#ffffff"/>
		</linearGradient>
		<linearGradient id="g7" x1="1871" y1="703.6" x2="1666.7" y2="619.7" gradientUnits="userSpaceOnUse">
			<stop offset=".5" stop-color="#eaedf3"/>
			<stop offset="1" stop-color="#ffffff"/>
		</linearGradient>
		<linearGradient id="g8" x1="1969.8" y1="791.9" x2="1639.1" y2="686.4" gradientUnits="userSpaceOnUse">
			<stop offset=".5" stop-color="#eaedf3"/>
			<stop offset="1" stop-color="#ffffff"/>
		</linearGradient>
		<linearGradient id="g9" x1="1724.4" y1="1654.7" x2="2687.3" y2="1697.1" gradientUnits="userSpaceOnUse">
			<stop offset="0" stop-color="#d8dee8"/>
			<stop offset="1" stop-color="#aabbcc"/>
		</linearGradient>
		<linearGradient id="g10" x1="1646.7" y1="735.6" x2="1712.3" y2="2160.4" gradientUnits="userSpaceOnUse">
			<stop offset="0" stop-color="#311944"/>
			<stop offset="1" stop-color="#a03976"/>
		</linearGradient>
		<linearGradient id="g11" x1="2256.4" y1="342.6" x2="1716.9" y2="785.2" gradientUnits="userSpaceOnUse">
			<stop offset="0" stop-color="#311944"/>
			<stop offset="1" stop-color="#a03976"/>
		</linearGradient>
		<linearGradient id="g12" x1="2190" y1="230.2" x2="1501.3" y2="795.2" gradientUnits="userSpaceOnUse">
			<stop offset="0" stop-color="#311944"/>
			<stop offset="1" stop-color="#a03976"/>
		</linearGradient>
		<linearGradient id="g13" x1="2725.5" y1="2853" x2="2725.5" y2="2498.9" gradientUnits="userSpaceOnUse">
			<stop offset="0" stop-color="#aa80f9"/>
			<stop offset="1" stop-color="#6165d7"/>
		</linearGradient>
		<linearGradient id="g14" x1="2457.2" y1="2466.1" x2="987.8" y2="2466.1" gradientUnits="userSpaceOnUse">
			<stop offset="0" stop-color="#aa80f9"/>
			<stop offset="1" stop-color="#6165d7"/>
		</linearGradient>
		<linearGradient id="g15" x1="2710.7" y1="2519.3" x2="2710.7" y2="2012.8" gradientUnits="userSpaceOnUse">
			<stop offset="0" stop-color="#e38ddd"/>
			<stop offset="1" stop-color="#9571f6"/>
		</linearGradient>
		<linearGradient id="g16" x1="2457.2" y1="2006" x2="987.8" y2="2006" gradientUnits="userSpaceOnUse">
			<stop offset="0" stop-color="#e38ddd"/>
			<stop offset="1" stop-color="#9571f6"/>
		</linearGradient>
		<linearGradient id="g17" x1="3200.2" y1="1676.6" x2="2845.9" y2="1680.4" gradientUnits="userSpaceOnUse">
			<stop offset="0" stop-color="#aa80f9"/>
			<stop offset="1" stop-color="#6165d7"/>
		</linearGradient>
		<linearGradient id="g18" x1="2457.2" y1="1685" x2="987.8" y2="1685" gradientUnits="userSpaceOnUse">
			<stop offset="0" stop-color="#aa80f9"/>
			<stop offset="1" stop-color="#6165d7"/>
		</linearGradient>
		<linearGradient id="g19" x1="2457.2" y1="1976.4" x2="987.8" y2="1976.4" gradientUnits="userSpaceOnUse">
			<stop offset="0" stop-color="#aa80f9"/>
			<stop offset="1" stop-color="#6165d7"/>
		</linearGradient>
		<linearGradient id="g20" x1="3042.3" y1="2212" x2="3109.5" y2="2112.5" gradientUnits="userSpaceOnUse">
			<stop offset="0" stop-color="#ffc444"/>
			<stop offset="1" stop-color="#f36f56"/>
		</linearGradient>
		<linearGradient id="g21" x1="3037.9" y1="2187.5" x2="3132.8" y2="2047" gradientUnits="userSpaceOnUse">
			<stop offset="0" stop-color="#aa80f9"/>
			<stop offset="1" stop-color="#6165d7"/>
		</linearGradient>
		<linearGradient id="g22" x1="1575.8" y1="1842.4" x2="2500.8" y2="3572.5" gradientUnits="userSpaceOnUse">
			<stop offset="0" stop-color="#ff9085"/>
			<stop offset="1" stop-color="#fb6fbb"/>
		</linearGradient>
		<linearGradient id="g23" x1="1555.5" y1="1756.6" x2="2615.6" y2="3739.5" gradientUnits="userSpaceOnUse">
			<stop offset="0" stop-color="#ff9085"/>
			<stop offset="1" stop-color="#fb6fbb"/>
		</linearGradient>
		<linearGradient id="g24" x1="1518.7" y1="1704.1" x2="2558" y2="3648.2" gradientUnits="userSpaceOnUse">
			<stop offset="0" stop-color="#ff9085"/>
			<stop offset="1" stop-color="#fb6fbb"/>
		</linearGradient>
		<linearGradient id="g25" x1="1388" y1="1539.2" x2="647" y2="2102.3" gradientUnits="userSpaceOnUse">
			<stop offset="0" stop-color="#311944"/>
			<stop offset="1" stop-color="#6b3976"/>
		</linearGradient>
		<linearGradient id="g26" x1="1685.1" y1="1945.9" x2="1456.2" y2="1958.1" gradientUnits="userSpaceOnUse">
			<stop offset="0" stop-color="#e38ddd"/>
			<stop offset="1" stop-color="#9571f6"/>
		</linearGradient>
		<linearGradient id="g27" x1="1964.9" y1="2975" x2="1865.8" y2="2916" gradientUnits="userSpaceOnUse">
			<stop offset="0" stop-color="#311944"/>
			<stop offset="1" stop-color="#6b3976"/>
		</linearGradient>
		<linearGradient id="g28" x1="1943.7" y1="3020.9" x2="1725.3" y2="2466" gradientUnits="userSpaceOnUse">
			<stop offset="0" stop-color="#ffc444"/>
			<stop offset="1" stop-color="#f36f56"/>
		</linearGradient>
		<linearGradient id="g29" x1="1933.6" y1="2718.2" x2="1868.6" y2="2721.6" gradientUnits="userSpaceOnUse">
			<stop offset="0" stop-color="#311944"/>
			<stop offset="1" stop-color="#6b3976"/>
		</linearGradient>
		<linearGradient id="g30" x1="2001.8" y1="2938.7" x2="1875.3" y2="2617.2" gradientUnits="userSpaceOnUse">
			<stop offset="0" stop-color="#ffc444"/>
			<stop offset="1" stop-color="#f36f56"/>
		</linearGradient>
		<linearGradient id="g31" x1="1690.1" y1="2384.3" x2="1633.5" y2="2860.5" gradientUnits="userSpaceOnUse">
			<stop offset="0" stop-color="#40447e"/>
			<stop offset="1" stop-color="#3c3b6b"/>
		</linearGradient>
		<linearGradient id="g32" x1="1980.8" y1="2871.4" x2="1848.8" y2="2519.9" gradientUnits="userSpaceOnUse">
			<stop offset="0" stop-color="#40447e"/>
			<stop offset="1" stop-color="#3c3b6b"/>
		</linearGradient>
		<linearGradient id="g33" x1="1966.8" y1="2837.8" x2="1844" y2="2510.7" gradientUnits="userSpaceOnUse">
			<stop offset="0" stop-color="#40447e"/>
			<stop offset="1" stop-color="#3c3b6b"/>
		</linearGradient>
		<linearGradient id="g34" x1="1268.9" y1="2346.1" x2="1218.8" y2="2767.8" gradientUnits="userSpaceOnUse">
			<stop offset="0" stop-color="#40447e"/>
			<stop offset="1" stop-color="#3c3b6b"/>
		</linearGradient>
		<linearGradient id="g35" x1="1221.6" y1="2124.5" x2="1148.8" y2="2569.3" gradientUnits="userSpaceOnUse">
			<stop offset="0" stop-color="#e38ddd"/>
			<stop offset="1" stop-color="#9571f6"/>
		</linearGradient>
		<linearGradient id="g36" x1="1315.5" y1="2042.6" x2="1349.3" y2="1838" gradientUnits="userSpaceOnUse">
			<stop offset="0" stop-color="#ffc444"/>
			<stop offset="1" stop-color="#f36f56"/>
		</linearGradient>
		<linearGradient id="g37" x1="1459.6" y1="1878.9" x2="1421.6" y2="2151" gradientUnits="userSpaceOnUse">
			<stop offset="0" stop-color="#ffc444"/>
			<stop offset="1" stop-color="#f36f56"/>
		</linearGradient>
		<linearGradient id="g38" x1="1613.2" y1="2151.6" x2="1195.2" y2="2173.9" gradientUnits="userSpaceOnUse">
			<stop offset="0" stop-color="#aa80f9"/>
			<stop offset="1" stop-color="#6165d7"/>
		</linearGradient>
		<linearGradient id="g39" x1="1117.2" y1="2092" x2="1046.8" y2="2522" gradientUnits="userSpaceOnUse">
			<stop offset="0" stop-color="#e38ddd"/>
			<stop offset="1" stop-color="#9571f6"/>
		</linearGradient>
		<linearGradient id="g40" x1="1680.5" y1="2335.6" x2="1887.3" y2="1925.7" gradientUnits="userSpaceOnUse">
			<stop offset="0" stop-color="#311944"/>
			<stop offset="1" stop-color="#6b3976"/>
		</linearGradient>
		<linearGradient id="g41" x1="1834.3" y1="2321.6" x2="1680" y2="2085.5" gradientUnits="userSpaceOnUse">
			<stop offset="0" stop-color="#311944"/>
			<stop offset="1" stop-color="#6b3976"/>
		</linearGradient>
		<linearGradient id="g42" x1="1504.5" y1="2334.9" x2="1423.1" y2="2420.2" gradientUnits="userSpaceOnUse">
			<stop offset="0" stop-color="#ffc444"/>
			<stop offset="1" stop-color="#f36f56"/>
		</linearGradient>
		<linearGradient id="g43" x1="2374.4" y1="2376.6" x2="2508.8" y2="3082.1" gradientUnits="userSpaceOnUse">
			<stop offset="0" stop-color="#ffc444"/>
			<stop offset="1" stop-color="#f36f56"/>
		</linearGradient>
		<linearGradient id="g44" x1="1922.5" y1="2380.8" x2="2361.2" y2="2380.8" gradientUnits="userSpaceOnUse">
			<stop offset="0" stop-color="#ffc444"/>
			<stop offset="1" stop-color="#f36f56"/>
		</linearGradient>
		<linearGradient id="g45" x1="2658.4" y1="2370.4" x2="2715.4" y2="2370.4" gradientUnits="userSpaceOnUse">
			<stop offset="0" stop-color="#ffc444"/>
			<stop offset="1" stop-color="#f36f56"/>
		</linearGradient>
		<linearGradient id="g46" x1="2660.4" y1="2380.8" x2="2687" y2="2380.8" gradientUnits="userSpaceOnUse">
			<stop offset="0" stop-color="#ff9085"/>
			<stop offset="1" stop-color="#fb6fbb"/>
		</linearGradient>
		<linearGradient id="g47" x1="2280.8" y1="2781.2" x2="2507.3" y2="2781.2" gradientUnits="userSpaceOnUse">
			<stop offset="0" stop-color="#ffc444"/>
			<stop offset="1" stop-color="#f36f56"/>
		</linearGradient>
		<linearGradient id="g48" x1="2645.2" y1="2756.1" x2="2727.5" y2="2756.1" gradientUnits="userSpaceOnUse">
			<stop offset="0" stop-color="#ffc444"/>
			<stop offset="1" stop-color="#f36f56"/>
		</linearGradient>
		<linearGradient id="g49" x1="2874.5" y1="2478.4" x2="2850.4" y2="3291.3" gradientUnits="userSpaceOnUse">
			<stop offset="0" stop-color="#ffc444"/>
			<stop offset="1" stop-color="#f36f56"/>
		</linearGradient>
		<linearGradient id="g50" x1="2750.8" y1="2493.4" x2="2749.8" y2="2513.9" gradientUnits="userSpaceOnUse">
			<stop offset="0" stop-color="#311944"/>
			<stop offset="1" stop-color="#893976"/>
		</linearGradient>
		<linearGradient id="g51" x1="2801.6" y1="2410.2" x2="2793.5" y2="2466.1" gradientUnits="userSpaceOnUse">
			<stop offset="0" stop-color="#311944"/>
			<stop offset="1" stop-color="#893976"/>
		</linearGradient>
		<linearGradient id="g52" x1="2713.3" y1="2369.6" x2="2701.9" y2="2448.4" gradientUnits="userSpaceOnUse">
			<stop offset="0" stop-color="#311944"/>
			<stop offset="1" stop-color="#893976"/>
		</linearGradient>
		<linearGradient id="g53" x1="2695.5" y1="2491.6" x2="2721.7" y2="2491.6" gradientUnits="userSpaceOnUse">
			<stop offset="0" stop-color="#311944"/>
			<stop offset="1" stop-color="#893976"/>
		</linearGradient>
		<linearGradient id="g54" x1="2803.3" y1="2389.5" x2="2841.1" y2="2389.5" gradientUnits="userSpaceOnUse">
			<stop offset="0" stop-color="#ff9085"/>
			<stop offset="1" stop-color="#fb6fbb"/>
		</linearGradient>
		<linearGradient id="g55" x1="2155.7" y1="2737.2" x2="2854.1" y2="2737.2" gradientUnits="userSpaceOnUse">
			<stop offset="0" stop-color="#ffc444"/>
			<stop offset="1" stop-color="#f36f56"/>
		</linearGradient>
	</defs>
	<style>
		.s0 { fill: #f4f7fa } 
		.s1 { fill: url(#g1) } 
		.s2 { fill: #fcfdfe } 
		.s3 { fill: url(#g2) } 
		.s4 { fill: url(#g3) } 
		.s5 { fill: url(#g4) } 
		.s6 { fill: url(#g5) } 
		.s7 { fill: url(#g6) } 
		.s8 { fill: url(#g7) } 
		.s9 { fill: url(#g8) } 
		.s10 { fill: url(#g9) } 
		.s11 { fill: url(#g10) } 
		.s12 { fill: url(#g11) } 
		.s13 { fill: url(#g12) } 
		.s14 { mix-blend-mode: soft-light;fill: #ffffff } 
		.s15 { fill: url(#g13) } 
		.s16 { fill: #eaedf3 } 
		.s17 { fill: url(#g14) } 
		.s18 { fill: url(#g15) } 
		.s19 { fill: url(#g16) } 
		.s20 { fill: #d8dee8 } 
		.s21 { fill: url(#g17) } 
		.s22 { fill: url(#g18) } 
		.s23 { fill: url(#g19) } 
		.s24 { opacity: .5;mix-blend-mode: soft-light;fill: #ffffff } 
		.s25 { opacity: .3;mix-blend-mode: multiply;fill: url(#g20) } 
		.s26 { fill: url(#g21) } 
		.s27 { fill: url(#g22) } 
		.s28 { fill: url(#g23) } 
		.s29 { fill: url(#g24) } 
		.s30 { fill: url(#g25) } 
		.s31 { fill: url(#g26) } 
		.s32 { fill: url(#g27) } 
		.s33 { fill: url(#g28) } 
		.s34 { fill: url(#g29) } 
		.s35 { fill: url(#g30) } 
		.s36 { fill: url(#g31) } 
		.s37 { fill: url(#g32) } 
		.s38 { opacity: .3;mix-blend-mode: multiply;fill: url(#g33) } 
		.s39 { fill: url(#g34) } 
		.s40 { fill: url(#g35) } 
		.s41 { fill: url(#g36) } 
		.s42 { fill: url(#g37) } 
		.s43 { opacity: .3;mix-blend-mode: multiply;fill: url(#g38) } 
		.s44 { fill: url(#g39) } 
		.s45 { fill: url(#g40) } 
		.s46 { fill: url(#g41) } 
		.s47 { fill: url(#g42) } 
		.s48 { fill: url(#g43) } 
		.s49 { opacity: .3;mix-blend-mode: multiply;fill: url(#g44) } 
		.s50 { fill: url(#g45) } 
		.s51 { fill: url(#g46) } 
		.s52 { fill: url(#g47) } 
		.s53 { fill: url(#g48) } 
		.s54 { fill: url(#g49) } 
		.s55 { fill: url(#g50) } 
		.s56 { fill: url(#g51) } 
		.s57 { fill: url(#g52) } 
		.s58 { fill: url(#g53) } 
		.s59 { fill: url(#g54) } 
		.s60 { opacity: .3;mix-blend-mode: multiply;fill: url(#g55) } 
	</style>
	<g id="Illustration">
		<g id="&lt;Group&gt;">
			<g id="&lt;Group&gt;">
				<path id="&lt;Path&gt;" class="s0" d="m3090.2 1192.7c258.4 449.9 215.1 1042.1-74.1 1452.3-619.1 878.2-2162.1 633-2262.5 340.7-44.5-129.7 189.6-285.8 123-548.2-31-122.2-101.1-164.3-184.9-272.3-278.8-359.3-313.6-937.6-123-1063.9 128.6-85.2 296.1 77 432.5-22 140.2-101.7 29.4-320.8 123.9-456 211.9-303.3 1498.3-243.4 1965.1 569.4z"/>
				<g id="&lt;Group&gt;">
					<g id="&lt;Group&gt;">
						<path id="&lt;Path&gt;" class="s1" d="m1228.1 2281.6c-108.6 28-347.3 68.4-342.1-95.8 4.4-136.8 61.4-219.1-101.2-257.5-162.6-38.4-249.8-130.5-222.6-280.9 28.7-158.4-161.5-306.6-53.4-433.7 188.3-221.5 479.9 129.7 528.6 354.8 48.8 225.1 154.6 141.3 309.6 144.5 211.7 4.5 95.1 225.7 194.9 296.6 33.8 24 47.6 23.7 86.3 30 11.2 9.2 70.7 4.6 75 16.9 25.7 72.3-33.3 194.9-60.5 262.2-4 10.1-31.1 37.7-46.2 44.3-43.1-102.6-281-104-368.4-81.4z"/>
						<g id="&lt;Clip Group&gt;" clip-path="url(#cp1)">
							<g id="&lt;Group&gt;" style="mix-blend-mode: soft-light">
								<g id="&lt;Group&gt;">
									<path id="&lt;Path&gt;" class="s2" d="m960.4 1827.2c-188.6-184.6-331.2-425.8-412.2-697.6l3.3-1c171.1 573.5 590.5 970.7 1122 1062.5l-0.6 3.4c-267.8-46.2-514.1-173.3-712.5-367.3z"/>
									<path id="&lt;Path&gt;" class="s2" d="m874.1 2250.9c122.3-83.6 348-150.4 503.1-148.9v3.5c-154.6-1.5-379.4 65.1-501.2 148.3z"/>
									<path id="&lt;Path&gt;" class="s2" d="m1413.1 1964.3c-22-76.2-31.8-168.3-29.2-273.5l3.5 0.1c-2.6 104.9 7.2 196.5 29 272.4 29.8 103.5 81.6 173.8 153.9 208.8l-1.6 3.2c-73.2-35.5-125.5-106.5-155.6-211z"/>
									<path id="&lt;Path&gt;" class="s2" d="m536.1 1769.8l-0.8-3.4c109.6-26.5 268.3-42.6 401.1 30.5l-1.7 3.1c-131.8-72.6-289.5-56.5-398.6-30.2z"/>
									<path id="&lt;Path&gt;" class="s2" d="m751.5 1103.6l3.2 1.3c-36.5 88-88.8 259.4-29.4 419.6l-3.3 1.2c-59.8-161.3-7.2-333.7 29.5-422.1z"/>
								</g>
							</g>
						</g>
					</g>
				</g>
				<g id="&lt;Group&gt;">
					<g id="&lt;Group&gt;">
						<path id="&lt;Path&gt;" class="s3" d="m1247.7 1914.6c-117.1-9.9-366.9-52.4-305-213 51.6-133.7 136.4-195.3-11-289.5-147.5-94.2-201.8-215.3-122.9-354.7 83.1-146.6-53.6-358.9 97.2-447.1 262.7-153.9 429.5 294.2 399.8 533.5-29.6 239.3 103.9 193.1 256.1 249.9 207.6 77.6 15.9 256 90.1 360.5 25.1 35.5 38.8 40 74.8 59.5 7.9 13.1 68.3 29.1 68.4 42.8 0.4 80.3-100.4 181-150.5 238.1-7.5 8.6-43.8 26.6-61 27.8-7.2-116.2-241.8-199.9-336-207.8z"/>
						<g id="&lt;Clip Group&gt;" clip-path="url(#cp2)">
							<g id="&lt;Group&gt;" style="mix-blend-mode: soft-light">
								<g id="&lt;Group&gt;">
									<path id="&lt;Path&gt;" class="s2" d="m1140.3 1372.9c-122.7-247.7-180.2-535.4-166.3-832.1l3.6 0.2c-29.2 626 248 1163.6 741.6 1438.1l-1.8 3.2c-248.6-138.3-448.2-349-577.1-609.4z"/>
									<path id="&lt;Path&gt;" class="s2" d="m908.4 1761.8c149.7-40.3 396-28.3 548.8 26.8l-1.2 3.5c-152.3-54.9-397.5-66.9-546.7-26.7z"/>
									<path id="&lt;Path&gt;" class="s2" d="m1540.3 1664.9c4.6-82.9 26.7-177.3 65.7-280.4l3.4 1.3c-38.8 102.8-60.8 196.8-65.5 279.3-6.3 112.6 20.6 200 79.9 259.6l-2.6 2.6c-60.1-60.4-87.3-148.7-80.9-262.4z"/>
									<path id="&lt;Path&gt;" class="s2" d="m740.7 1169.4l0.3-3.7c117.6 11.8 279.9 50.7 385.9 168.9l-2.7 2.5c-105.2-117.4-266.6-156-383.5-167.7z"/>
									<path id="&lt;Path&gt;" class="s2" d="m1183.9 585.3l2.8 2.5c-66.5 74.3-177.5 225.7-174.2 404.6h-3.7c-3.3-180 108.3-332.3 175.1-407.1z"/>
								</g>
							</g>
						</g>
					</g>
				</g>
				<g id="&lt;Group&gt;">
					<path id="&lt;Path&gt;" class="s4" d="m1650.4 812.4l971.8 147.8-340.8 727.1-1292.8 18.2c-17.1 1.1-28.5-17.3-19.9-32.2l470-811.7z"/>
					<path id="&lt;Path&gt;" class="s5" d="m1664.4 812.4l971.9 147.8-340.8 727.1-1292.8 18.2c-17.1 1.1-28.5-17.3-19.9-32.2l469.9-811.7z"/>
					<path id="&lt;Path&gt;" class="s6" d="m2518.7 1014l-264.2 751.9-1240.3-77.9 445.8-812.6z"/>
					<path id="&lt;Path&gt;" class="s7" d="m2616.3 1705.2l-1479.8-78.3 323.5-751.5 165.3-19.7 865.2 104.5z"/>
					<path id="&lt;Path&gt;" class="s8" d="m2616.3 1705.2l-1357.5-32.2 247.2-803.1 119.3-14.2 865.2 104.5z"/>
					<path id="&lt;Path&gt;" class="s9" d="m2616.3 1705.2l-1198.5-51.1 136.5-789.9 71-8.5 865.2 104.5z"/>
					<path id="&lt;Path&gt;" class="s10" d="m1912.6 922.6l597.1 764.7-784.7-42.4-99.7-789.2z"/>
					<path id="&lt;Path&gt;" class="s11" d="m2333.5 1645.2l-680.5-818.8 971.8 133.8 576.5 728.3c21.1 25.8 1 64.3-32.2 61.7l-744-58.6c-35.5-2.8-68.4-19.4-91.6-46.4z"/>
					<path id="&lt;Path&gt;" class="s12" d="m2352 1645.2l-680.5-818.8 971.8 133.8 576.5 728.3c21.1 25.8 1 64.3-32.2 61.7l-744.1-58.6c-35.4-2.8-68.3-19.4-91.5-46.4z"/>
					<path id="&lt;Path&gt;" class="s13" d="m2643.3 960.2l-990.3-133.8-211.7 35.2v-30.5c55.9-41.8 130-46.5 211.7-35.2l990.3 145.4z"/>
					<path id="&lt;Path&gt;" class="s14" d="m2256.6 1024.6l346.5 411.4-260.3-24.6-376.3-439.6z"/>
				</g>
				<g id="&lt;Group&gt;">
					<path id="&lt;Compound Path&gt;" class="s15" d="m2277.5 2520.2l747.2-21.1c82.8-3.8 148.7 60.2 148.7 142.6v0.9c0 82.4-56.5 145.1-139.3 152.6l-726 57.8z"/>
					<g id="&lt;Group&gt;">
						<path id="&lt;Path&gt;" class="s16" d="m1014.1 2482.4l1273.6 53.3c75.6 3.2 137.3 63.1 137.3 133.8v48c0 70.7-61.7 124.3-137.3 119.7l-1273.6-76.9z"/>
						<path id="&lt;Path&gt;" class="s17" d="m987.8 2758.7c0-8.1 6.5-14.4 14.6-13.9l1275.1 75.7c79.4 4.7 144.5-51.9 144.5-126.2v-1c0-74.3-65.1-137.5-144.5-140.9l-1275.1-54.7c-8.1-0.4-14.6-7.3-14.6-15.5 0-8.1 6.5-14.5 14.6-14.2l1275.1 52.2c98.6 4.1 179.7 82.5 179.7 174.9v1c0 92.4-81.1 162.6-179.7 156.6l-1275.1-78.3c-8.1-0.5-14.6-7.5-14.6-15.7z"/>
					</g>
					<path id="&lt;Compound Path&gt;" class="s18" d="m2248 2012.8l776.7 26.3c82.8 1.7 148.7 103.7 148.7 227.4v1.4c0 123.7-65.9 227.4-148.7 231.2l-725.9 20.2z"/>
					<g id="&lt;Group&gt;">
						<path id="&lt;Path&gt;" class="s16" d="m1014.1 2029l1205.6 14c112.8 1.3 205.3 88.5 205.3 194.6v72.1c0 106.1-92.5 188.6-205.3 184.1l-1205.6-47.5z"/>
						<path id="&lt;Path&gt;" class="s19" d="m987.8 2445.2c0-12.2 6.5-21.9 14.6-21.6l1275.1 48.4c79.4 3 144.5-85.3 144.5-196.9v-1.5c0-111.6-65.1-203.2-144.5-204.3l-1275.1-16.8c-8.1-0.1-14.6-10.1-14.6-22.4 0-12.3 6.5-22.2 14.6-22.1l1275.1 13.1c98.6 1 179.7 114.7 179.7 253.4v1.5c0 138.7-81.1 248.3-179.7 244.2l-1275.1-52.2c-8.1-0.3-14.6-10.5-14.6-22.8z"/>
					</g>
					<g id="&lt;Group&gt;">
						<path id="&lt;Path&gt;" class="s20" d="m2342.3 1704l691.1 43.2c63.5 3.9 114.1 58.5 114.1 121.9v43.1c0 63.4-50.6 113.7-114.1 112.3l-691.1-15.6z"/>
						<path id="&lt;Path&gt;" class="s21" d="m2310.3 2008.2c0-9 119.1-18.2 129.3-17.9l585.1 19.2c66.9 1.6 120.4-51.3 120.4-118v-0.9c0-66.7-53.5-124.2-120.4-128.2l-593-42.9c-10.2-0.6-121.4-7.4-121.4-16.5 0-9 119-16.7 129.3-16l585.1 45.7c82.8 5.4 148.7 76.7 148.7 159.1v0.9c0 82.4-65.9 148.1-148.7 146.4l-585.1-16.4c-10.3-0.2-129.3-5.5-129.3-14.5z"/>
					</g>
					<g id="&lt;Group&gt;">
						<path id="&lt;Path&gt;" class="s16" d="m1014.1 1715.4l1410.9-13.1v304.1l-1410.9-13.1z"/>
						<path id="&lt;Path&gt;" class="s22" d="m987.8 1716.6c0-8.2 6.5-14.9 14.6-14.9l1437.2-14.7c9.7-0.1 17.6 7.1 17.6 16 0 9-7.9 16.4-17.6 16.4l-1437.2 11.9c-8.1 0-14.6-6.5-14.6-14.7z"/>
						<path id="&lt;Path&gt;" class="s23" d="m987.8 1993.1c0-8.2 6.5-14.8 14.6-14.7l1437.2 11.9c9.7 0 17.6 7.4 17.6 16.4 0 8.9-7.9 16.1-17.6 16l-1437.2-14.7c-8.1-0.1-14.6-6.7-14.6-14.9z"/>
					</g>
					<path id="&lt;Path&gt;" class="s24" d="m2493.3 2108.9l154.3-0.5c34.5 124.8 37.3 227.3 0 333.6l-154.3 8.8c26.3-102 31-214.6 0-341.9z"/>
					<path id="&lt;Path&gt;" class="s25" d="m2813.2 2036.7l4.9-192.5 177.1 195q95.7 51.6 79.3 142.2l-109.5-43.6-97.3 33.7q-2.4-95.1-54.5-134.8z"/>
					<path id="&lt;Path&gt;" class="s26" d="m3074.5 2181.4l-85.9-82.4q-36.6 45.8-120.9 72.5 43.1-256.9-49.6-327.3l197 12.1q111.8 96.7 59.4 325.1z"/>
				</g>
			</g>
			<g id="&lt;Group&gt;">
				<g id="&lt;Group&gt;">
					<path id="&lt;Path&gt;" class="s27" d="m2056.5 2694.9c210.2 157.2-418.4 429.6-835.3 333.4-416.8-96.1-554.4-519.9-397.5-915.8q201.6-508.4 385.6-225.5c60.4 176 401.3 474.5 847.2 807.9z"/>
					<g id="&lt;Group&gt;" style="opacity: .3;mix-blend-mode: multiply">
						<path id="&lt;Path&gt;" class="s28" d="m1109.1 1933.2c-10.7-54.2-39.3-93.5-64.7-119q97.7-30.5 164.9 72.8c59.3 172.9 389.3 463.9 823.5 790.1-60.1 60.9-150.5 127.6-275.3 155.7-188.5 42.3-340-29.6-380.3-49.6-88.8-44-132.1-123.7-189.8-146.4-168.4-66.4-161.9-120.9-171.9-224-11.2-115.5 2.8-216.2 12.1-252.4 30.6-118.8 96.7-150.5 81.5-227.2z"/>
					</g>
					<g id="&lt;Group&gt;" style="opacity: .1;mix-blend-mode: multiply">
						<path id="&lt;Path&gt;" class="s29" d="m1872.1 2876c-188.5 117.6-509.3 200.2-760.4 33.6-232.6-154.2-267.3-431.4-279.3-516-20.9-147.7 1.3-278.5 37.5-384.9-15.2 30.2-30.6 64.7-46.2 103.8-156.9 395.9-19.3 819.7 397.5 915.8 410.3 94.7 1025.8-167.7 844.5-325.9-46 57.9-109 120.8-193.6 173.6z"/>
					</g>
				</g>
			</g>
			<g id="&lt;Group&gt;">
				<path id="&lt;Path&gt;" class="s30" d="m1431 1990c-4.6-2.8-14.1-9.2-25.3-7.4-9.4 1.5-16.2 8.1-20.5 13.5-18.2 27-47 63.9-89.9 99.2-77.7 63.9-154.4 84.4-169.6 88.1-72.3 17.7-180.1 44.5-244.2-22.2-56.6-58.8-61.4-171.9-13.1-218.9 51-49.7 133.1 6.7 205-53.4 44.4-37 21.9-68.2 67.9-100.2 47.7-33.1 76.9-4.1 185.4-38.4 60.2-19.1 62.2-15.2 69.5-15.4 33.1-1.1 83.8 11.4 105.5 46.8 17.8 28.9-1.6 44.2 3.4 120.1 4.2 62 19.6 90.1 4.9 100.8-14.6 10.6-55.2 2.1-79-12.6z"/>
				<path id="&lt;Path&gt;" class="s31" d="m1446.2 1964.3c18.8-19 90.8 11.8 139.8 55.2 57.6 51 55.7 94.9 107 159.3 25.5 32 26.2 155.5-39.8 117.2-45.9-26.6-70.8-63.7-118.6-136.9-48-73.5-111.8-171.1-88.4-194.8z"/>
				<path id="&lt;Path&gt;" class="s32" d="m1936 3031.5c-3.6 2.3-10-1.5-14.4-4.4-27-17.4-70.6-62.5-70.9-83.7q3.3-16.8 29.8-17.5l11.5 6.8c6.4 3.8 11.7 9.3 15.2 15.9l24.9 46.4c4.6 13.3 10.1 32.5 3.9 36.5z"/>
				<path id="&lt;Path&gt;" class="s33" d="m1884.9 2899.7c-2.5 20.6 2.6 31 7.7 36.7 3.6 4 33.4 47.8 22.5 55.7-4.9 3.6-42-37.9-45.8-44.3-3.4-5.9-5.3-4.4-6.3-20.7-0.7-10.8-3.4-19.3-5.4-24.7q13.6-1.3 27.3-2.7z"/>
				<path id="&lt;Path&gt;" class="s34" d="m1915.9 2736q26.4 28.2 24 60.8c-2.3 32.6-48.2-12.4-55.1-28.1q-6.9-15.7-15.1-38.1 29.4-20.6 46.2 5.4z"/>
				<path id="&lt;Path&gt;" class="s35" d="m1904 2690.2q-4.9 34.8 8.9 52.3c6.9 8.7 15.9 15.9 13.7 23.4-1.4 5.1-7.6 9-13.1 8.7-10.5-0.5-17.2-16.2-21.9-27.3q-6.9-16.4-12.2-51.9z"/>
				<path id="&lt;Path&gt;" class="s36" d="m1796.2 2560.7c-53.5-54.9-108.1-72.8-108.6-112.2-0.4-31.4 33.9-58.2 68-77.7 14.8 7.2 147.6 74.2 167.5 212.9 7.7 53.9-4.4 99.3-14.9 127q-11.2 4.8-22.4 9.6c-22.5-77-57.5-126.7-89.6-159.6z"/>
				<path id="&lt;Path&gt;" class="s37" d="m1858.3 2914.9c-11.1-7.6-26.1-19.9-37.7-39-15.1-24.8-16.8-48.5-18.1-60.2-5.6-50.2-28.1-88-57.8-139.3-10-17.2-22.5-30.5-67.6-76.2-35.4-35.8-143.8-21.9-163.9-28.4-71.9-23.4-36.7-0.9-117.2-14.8-63.3-10.9-122.7-76.3-119.2-133.4 1.5-25.3 15.6-43.1 21.1-51.3 48-70.8 164.3-92.1 293.1-61.6 12.7 19.3 33.3 46.5 64.9 71.8 37.8 30.2 68 39 89.3 49.5 97.7 47.9 127.6 188.8 142.3 258.1 9.7 45.9 20.4 125.8 0.4 225.4q-14.8-0.3-29.6-0.6z"/>
				<path id="&lt;Path&gt;" class="s38" d="m1276.8 2423.6c1.5-25.3 15.6-43.1 21.1-51.3 48-70.8 164.3-92.1 293.1-61.6 12.7 19.3 33.3 46.5 64.9 71.8 37.8 30.2 68 39 89.3 49.5 59.7 29.3 94 93.2 115.1 154.3-28.6-39.4-51.7-49.1-69.2-48.4-25 1.1-35 23-65 21.7-28.7-1.3-34.8-24.7-66.8-29-27.5-3.8-46.8 12.2-67.3 23.2-85.2 45.6-192.2-3.5-197-5.4-52.7-20.9-121.9-64.8-118.2-124.8z"/>
				<path id="&lt;Path&gt;" class="s39" d="m1798.5 2473.2c-14.4 0-36.5 0.8-63.1 4.8-125.9 19.3-157.5 83.8-261.3 104.6-24.6 4.9-133.9 26.9-185.1-34.3-36.7-43.9-35.7-123 0.2-156 15.1-14 30.9-14.4 132.5-18.9 38.3-1.7 76.6-3.6 114.9-5.2 162-6.5 192.4-19.4 223.3 5.9 14.4 11.7 35.9 37.5 38.6 99.1z"/>
				<g id="&lt;Group&gt;">
					<g id="&lt;Group&gt;">
						<path id="&lt;Path&gt;" class="s40" d="m1503.4 1983q41.5 41.2 55 91c12.2 44.7 2.1 62.6 5.4 100.8 3 34.7 17 84.3 68.9 142.4 19.2-25.6-45.6 67.6-63.8 80.1-50.2 34.6-87.5-5.5-131.3 29.1-11.1 8.8-25.9 32.8-55.6 81-20.5 33.3-26.3 46.5-41.2 49.8-23 5.1-32.4-20.9-67-23.3-32.6-2.2-49.8 19.2-61.4 10.1-13.2-10.3-1.4-45.9 1.9-55.8 19.5-58.2 50.5-69.4 66.8-102 40.9-82.3-78.6-167.1-56.3-320.1 4.4-30 11.7-45.8 21.4-58.1q53-66.7 182.8-36.2c61.4-0.8 68.4 5.3 74.4 11.2z"/>
					</g>
				</g>
				<g id="&lt;Group&gt;">
					<path id="&lt;Path&gt;" class="s41" d="m1420 1928.3q2.6 12.5 5.2 25c8.1 1 16.9 2.6 26.4 5 12.6 3.1 31.8 13.8 41.2 17.8-3.7 5.4-10.2 10.9-18.4 18.2-5.4 4.8-28.4 13.3-51.9 18.9-6.7 1.6-53.5 11.9-78.6-17-9-10.3-12.1-22.1-13.3-29.3 5.7-1 13.8-2.5 23.3-4.9 14.7-3.5 22-5.3 25.7-7.9 17.2-12.1 6.1-55.1 3.9-63.1q18.2 18.7 36.5 37.3z"/>
					<path id="&lt;Path&gt;" class="s42" d="m1375.7 1901.6c-0.5-1.7-2.9-9.4 0.7-12.3 2.8-2.3 8.8-1.1 13.9 3.7 2.1-24.3 25.6-34.7 32.7-35.3 10.1-0.8 22.1 4.1 27.1 9.6 15.1 16.6-2.2 84.6-30.1 81q-31.3-4-36.2-35.6c-2-1.5-6.2-5.1-8.1-11.1z"/>
				</g>
				<path id="&lt;Path&gt;" class="s43" d="m1568.9 2397.3c-50.2 34.6-87.5-5.5-131.3 29.1-11.1 8.8-25.9 32.8-55.6 81-20.5 33.3-26.3 46.5-41.2 49.8-23 5.1-32.4-20.9-67-23.3-32.6-2.2-49.8 19.2-61.4 10.1-13.2-10.3-1.4-45.9 1.9-55.8 19.5-58.2 50.5-69.4 66.8-102 30.1-60.6-26.7-122.6-49.9-212.2 26 36.3 50.2 48 69.6 50.5 32.3 4.1 54.8-15.2 88.8-1 32.3 13.6 28 41.2 61.7 59.1 29.7 15.8 52.3 4.6 94.7 4.4 18.8-0.1 42.2 2.1 69.6 9.6 5.2 6.8 10.8 13.6 17.1 20.6 19.2-25.6-45.6 67.6-63.8 80.1z"/>
				<g id="&lt;Group&gt;">
					<path id="&lt;Path&gt;" class="s44" d="m1113.9 2329.4c-76.1-100 108.4-356.4 165.1-340.5 27.3 7.6 44 83.4 23.9 139.7-21.8 60.9-84.4 92.6-72.9 119.3 4.1 9.6 15.3 13.1 24.7 15.9 60.2 18 118.6 31.8 160.9 41q-4.9 15.2-9.8 30.4c-125.4 53.4-248.9 50.6-291.9-5.8z"/>
				</g>
				<path id="&lt;Path&gt;" class="s45" d="m1569.7 2327.9c5.2-5.1 51.9-221.7 65.4-284.4 1.6-7.4 10.6-10.2 16.2-5.1l64.8 60.9-48.5 260.6-31.3 17.3q-72.8-43.3-66.6-49.3z"/>
				<path id="&lt;Path&gt;" class="s46" d="m1445.4 2345.7l40.8-238.2c2.1-12.3 13.3-20.9 25.7-19.8l179 16.8-51.3 272.5-171.1-3.4c-14.6-0.3-25.6-13.5-23.1-27.9z"/>
				<path id="&lt;Path&gt;" class="s47" d="m1415.6 2304.8c25.3-15.3 57.4-2.8 59.4-1.9 5.9 2.4 14.5 6.8 23.4 15 1 1.2 13.2 16.3 9.4 21.6-3.1 4.2-16.1 1.5-32-7.3-6.6-0.5-16.2-0.8-27.7 0.8-21 3.1-30.3 10.3-38.3 4.9-5.9-3.9-8.2-12.7-6.6-19.4 1.8-7.3 8.1-11.2 12.4-13.7z"/>
				<path id="&lt;Path&gt;" class="s14" d="m1516.1 2144.5l125.6 10.6-3.4 39.1-125.5-10.6z"/>
			</g>
			<g id="&lt;Group&gt;">
				<path id="&lt;Path&gt;" class="s48" d="m2331.5 2677.1c-7.2-8 3.9-20.4-3.6-35.8-9.5-19.1-40.3-27.5-64.9-24.9-43.7 4.6-51.9 42.1-84.1 39-26.7-2.5-28.8-29.1-58.1-33.8-33.1-5.3-45.7 26.4-78 29.5-50 4.8-111-62.5-124-132.6-11.6-62.8 13.2-138.9 47.7-144.8 17.3-3 35.7 11.8 45.1 24.2 22.6 30 0.9 57.6 16 98.4 17.9 48.1 69.9 68.1 72.7 69.1 49.8 18.4 67.1-16.8 124.6-4.5 51.1 11.1 49.7 41.6 117.2 63.3 49.4 15.8 79.5 8.9 81.3 19.1 3 16.8-75.8 51.7-91.9 33.8z"/>
				<path id="&lt;Path&gt;" class="s49" d="m2337.6 2639c12.2 13.8 19.4 28.6 23.6 41.5-13.2 2.7-24.6 2.3-29.7-3.4-7.2-8 3.9-20.4-3.6-35.8-9.5-19.1-40.3-27.5-64.9-24.9-43.7 4.6-51.9 42.1-84.1 39-26.7-2.5-28.8-29.1-58.1-33.8-33.1-5.3-45.7 26.4-78 29.5-50 4.8-111-62.5-124-132.6-9.5-51.8 5.7-112.7 30.7-135.7-7.7 19.9-7.7 35.6-5.5 47.2 8.1 43.5 49.5 48.5 70.2 105.8 16.8 46.4 1.5 75.9 19.9 85.8 23 12.4 47.7-32.9 95.4-27.7 36.3 3.9 45.4 32.6 79.2 28.7 24.7-2.9 25.8-19 50.9-21.8 40.3-4.5 73.5 33.1 78 38.2z"/>
				<path id="&lt;Path&gt;" class="s50" d="m2687.4 2456.7c-12.2 6-18.3 9-22.7 6.8-8.9-4.5-2.4-21.3-6.1-63.3-1.4-16.5-3.2-22.6 0.9-26 8-6.6 29.6 4.5 42.3 17.7 4.5 4.5 22.3 22.9 16.6 40.4-3.4 10.8-14.1 16.1-31 24.4z"/>
				<path id="&lt;Path&gt;" class="s51" d="m2689.6 2443.8c-0.7 5.3-2.1 10.1-3.9 14.4-10 4.9-15.3 7.3-19.1 5.4-8.2-4.2-2.2-19.7-5.6-58.6-1.2-12.8-2.5-18.8-0.7-22.2 3.9 2.2 8 5.1 11.9 9 21.2 21 17.7 49.8 17.4 52z"/>
				<path id="&lt;Path&gt;" class="s52" d="m2509.3 2808c2.1 15.9-51.2 31.3-128.7 97.8-12.5 10.8-31.2 27.6-29.5 47.9 1.1 12.4 10 29.3 24.4 37.4 10.8 6.1 19.8 4.5 26.2 13.4 3.6 4.9 6.8 13.5 3.5 18.5-6.1 9.3-32.7 3.9-50.5-4.9-23.7-11.7-35.7-31.5-39.9-38.7-6.7-11.4-5.4-14-13.8-34-14.2-33.9-22.6-36.9-25.3-49.5-6.8-31.9 33.6-72.1 68.2-91.3 70.6-39.2 162.7-16.7 165.4 3.4z"/>
				<path id="&lt;Path&gt;" class="s53" d="m2717.3 2761.8c24.1 14.2 16.7 70.2 10.4 95.9-12.4 51.6-47 93.1-32.5 109.6 3.4 3.9 10 6.9 16 17 2.9 4.9 8.4 14.1 5.6 20.3-5.7 12.7-47.2 16.1-62.3-2.9-4.1-5-6.4-11.9-4.1-44.5 2.1-30.8 5.5-42.8 6.8-56.7 5.1-54.6-28.7-71.2-17.3-101.7 11.1-29.7 56.3-49.5 77.4-37z"/>
				<path id="&lt;Path&gt;" class="s54" d="m2719.4 2417.5c23.1-5.3 42.5 1.2 51 4.7 6.2-6.2 13.9-13.1 23.4-19.6 18.1-12.4 35.5-19.2 48.6-23 1.4 10.6 2.2 23.6 1 38.4-1.8 22.2-7.4 40.3-12.5 53.2 19.5 39.1 18.6 54.5 12.4 60.5-7.5 7.5-22.1 0.2-30.4 8.8-8.9 9.3-2.7 28.3 1.3 41.2 11 35.9 25.6 83.6 23.6 126.1-0.6 12.5-2.1 38.4-17.2 65-13.5 23.8-24.1 23.9-35.2 44.1-13.7 24.9-11 49.3-6.6 89.9 5.1 46.2 8.2 74.9 30.5 94 20.7 17.8 46.5 17.2 46.8 28 0.1 7.9-13.5 15.8-25.4 18-29.4 5.4-56.2-22.8-64.8-31.8-30.4-32-22.6-51.7-44.7-83.4-31.3-44.9-84.1-59-107.8-65.3-46-12.2-43.1 4.7-136.6-5-26.6-2.7-44.4-5.9-69.3 0.7-28.3 7.6-30.6 18.4-61.2 31.6-45 19.3-56.8 3.3-97.5 21.4-33.3 14.9-66.7 44.1-61.9 63.5 3.1 12.6 20.3 12.8 34.5 37.6 4.8 8.3 10.8 18.8 6.9 26.6-6.4 13-39.1 15.8-60.1 2.3-8.5-5.4-16.1-24.9-31.2-63.6-10.9-28.1-14.6-40.1-9.2-52 4.6-10.3 14.3-14.4 17.8-17.8 41.3-40.4 63.2-55 77-68.3 49.6-47.5 15.3-95.1 59.3-149.5 35.4-43.7 90.7-54 121-59.7 69.4-13 94.8 12.5 198.7 0.4 48.2-5.6 68.4-14 77.8-31 12-21.8 5.7-59.8-12.7-70.6-8.4-4.8-19.6-4.4-23.1-12.7-2.2-5.5 0.3-11.2 1.9-15.1 21.4-49.6 19.5-47.5 21.7-50.4 7.5-9.8 23.4-30.6 52.2-37.2z"/>
				<path id="&lt;Path&gt;" class="s55" d="m2670.7 2516.1q21.5 18.7 35.6-5.7 19.6 21.8 41.1 6.3-17.1 29.9-41.1 1.5-12.9 25.5-35.6-2.1z"/>
				<path id="&lt;Path&gt;" class="s56" d="m2734 2494.4q1.6-45.5 55.2-32.1-9 37.9-55.2 32.1z"/>
				<path id="&lt;Path&gt;" class="s57" d="m2697 2489.9q17.4-37.6-20.8-37.1-6.4 28.6 20.8 37.1z"/>
				<path id="&lt;Path&gt;" class="s58" d="m2706.1 2512.4q-14.9-13-12.3-17.4c2.6-4.4 27.7 0.9 29 3.5q1.3 2.6-16.7 13.9z"/>
				<path id="&lt;Path&gt;" class="s59" d="m2823.5 2412.9c4.9-5.4 10.9-12.5 17.2-21.4 0.8 8.7 1.1 18.6 0.2 29.6-1.7 20.4-6.7 37.1-11.4 49.1-2.7-3.1-5.9-6.6-9.7-10.1-11-10-16.6-11-18-16.7-2-8.7 8.8-16.6 21.7-30.5z"/>
				<path id="&lt;Path&gt;" class="s60" d="m2854.1 3034.3c-4.2 5.8-14.3 10.8-23.4 12.5-29.4 5.4-56.2-22.8-64.8-31.8-30.4-32-22.6-51.7-44.7-83.4-31.3-44.9-84.1-59-107.8-65.3-46-12.2-43.1 4.7-136.6-5-26.6-2.7-44.4-5.9-69.3 0.7-28.3 7.6-30.6 18.4-61.2 31.6-45 19.3-56.8 3.3-97.5 21.4-33.3 14.9-66.7 44.1-61.9 63.5 3.1 12.6 20.3 12.8 34.5 37.6 4.8 8.3 10.8 18.8 6.9 26.6-6.4 13-39.1 15.8-60.1 2.3-4-2.6-7.9-8.4-12.5-18 15.2 7.8 30.4 13.8 34.5 9 7.3-8.3-31.1-36.4-30.3-73.6 1-52.4 78.8-89.9 90.1-95.4 59.3-28.6 75.4-5.5 137-29.5 74.3-29 62.6-67.2 133.5-90.2 13.7-4.4 58.8-5.5 149.1-7.8 44.2-1.1 62.6-0.8 70.3 11.3 13.5 21.3-27.1 46.2-26.9 97.1 0.1 24.6 9.6 25.7 57.2 120.5 21.3 42.4 23.6 50.6 35.6 58.1 14.2 9 31.2 10.3 48.3 7.8z"/>
			</g>
		</g>
	</g>
</svg>