<svg xmlns="http://www.w3.org/2000/svg" version="1.1" xmlns:xlink="http://www.w3.org/1999/xlink" xmlns:svgjs="http://svgjs.com/svgjs" width="1280" height="720" preserveAspectRatio="none" viewBox="0 0 1280 720"><g mask="url(&quot;#SvgjsMask1022&quot;)" fill="none"><rect width="1280" height="720" x="0" y="0" fill="rgba(237, 237, 237, 1)"></rect><path d="M0,604.601C112.931,607.471,224.802,554.951,306.518,476.951C381.968,404.932,403.052,296.827,428.427,195.656C449.912,109.994,443.274,24.744,442.088,-63.563C440.708,-166.265,473.941,-276.756,420.899,-364.711C365.69,-456.259,260.87,-509.206,157.316,-535.77C55.684,-561.841,-51.916,-548.19,-150.097,-511.185C-243.691,-475.909,-308.893,-398.997,-383.201,-332.045C-468.751,-254.964,-602.136,-202.912,-618.715,-88.958C-635.291,24.977,-520.35,111.707,-462.219,211.088C-410.635,299.277,-374.46,395.394,-296.667,461.623C-211.353,534.255,-112.008,601.755,0,604.601" fill="#b7b7b7"></path><path d="M1280 1140.9479999999999C1360.9 1161.7 1446.789 1133.238 1521.204 1095.32 1600.784 1054.771 1674.6399999999999 998.297 1715.66 918.9590000000001 1757.661 837.724 1785.167 736.901 1750.212 652.394 1716.0439999999999 569.79 1613.099 546.235 1540.1309999999999 494.595 1486.1680000000001 456.405 1440.234 408.859 1377.335 388.506 1313.223 367.761 1246.865 374.7 1179.557 377.923 1091.534 382.138 991.89 355.874 922.569 410.284 852.277 465.457 838.389 566.235 826.761 654.8340000000001 815.239 742.628 799.646 845.538 856.543 913.386 913.758 981.6120000000001 1028.634 946.939 1107.067 989.088 1176.04 1026.153 1204.155 1121.493 1280 1140.9479999999999" fill="#ffffff"></path></g><defs><mask id="SvgjsMask1022"><rect width="1280" height="720" fill="#ffffff"></rect></mask></defs></svg>